<svg xmlns="http://www.w3.org/2000/svg" xmlns:xlink="http://www.w3.org/1999/xlink" height="100%" width="100%" fill="#000000" version="1.1" x="0px" y="0px" viewBox="0 0 66 66" style="enable-background:new 0 0 66 66;" xml:space="preserve"><g><path d="M39.8,6.5c-1-1-2.4-1.5-3.8-1.5H21c-5.2,0-9.5,4.3-9.5,9.5v37c0,5.2,4.3,9.5,9.5,9.5h24c5.2,0,9.5-4.3,9.5-9.5V22.7   c0-1.5-0.6-3-1.7-4L39.8,6.5z M51.5,51.5c0,3.6-2.9,6.5-6.5,6.5H21c-3.6,0-6.5-2.9-6.5-6.5v-37c0-3.6,2.9-6.5,6.5-6.5h15   c0,0,0.1,0,0.1,0v9c0,3,2.5,5.5,5.5,5.5h9.9c0,0.1,0,0.2,0,0.2V51.5z"/><path d="M19.4,40.1c-0.7,0-1.2,0.6-1.2,1.2c0,0.7,0.6,1.2,1.2,1.2s1.2-0.6,1.2-1.2C20.7,40.6,20.1,40.1,19.4,40.1z"/><path d="M22.4,42.3c0,0.7-0.3,1-0.8,1c-0.4,0-0.6-0.1-0.8-0.3l-0.5,1.5c0.5,0.3,0.8,0.4,1.7,0.4c1.7,0,2.4-1.1,2.4-2.6v-6.2h-2   V42.3z"/><path d="M23.4,33.2c-0.6,0-1.1,0.5-1.1,1.1s0.5,1.2,1.1,1.2s1.2-0.5,1.2-1.2S24.1,33.2,23.4,33.2z"/><path d="M29.8,35.9c-0.7,0-1.4,0.3-1.9,0.9v-0.7h-2v8.7h2v-3.1c0.5,0.6,1.2,0.9,1.9,0.9c1.6,0,2.8-1.2,2.8-3.3   C32.5,37.1,31.3,35.9,29.8,35.9z M29.1,40.8c-0.4,0-0.9-0.2-1.2-0.6v-1.9c0.2-0.3,0.8-0.6,1.2-0.6c0.8,0,1.4,0.6,1.4,1.5   C30.5,40.2,29.9,40.8,29.1,40.8z"/><path d="M36.5,35.9c-2,0-3.3,1.5-3.3,3.3c0,2,1.5,3.3,3.4,3.3c1,0,2-0.3,2.6-0.8l-0.9-1.3c-0.4,0.3-1.1,0.5-1.5,0.5   c-0.9,0-1.4-0.5-1.6-1h4.5v-0.5C39.7,37.3,38.3,35.9,36.5,35.9z M35.2,38.5c0.1-0.5,0.4-1,1.3-1c0.9,0,1.2,0.5,1.3,1H35.2z"/><path d="M44.9,36.8c-0.5-0.6-1.2-0.9-1.9-0.9c-1.6,0-2.8,1.1-2.8,3.2c0,2.1,1.2,3.2,2.8,3.2c0.7,0,1.3-0.3,1.9-0.9v0.5   c0,1.2-0.9,1.5-1.6,1.5c-0.7,0-1.4-0.2-1.9-0.7L40.5,44c0.8,0.7,1.7,0.9,2.8,0.9c1.6,0,3.6-0.5,3.6-3.1v-5.7h-2V36.8z M44.9,39.9   c-0.2,0.3-0.8,0.6-1.2,0.6c-0.8,0-1.4-0.5-1.4-1.4c0-0.9,0.6-1.4,1.4-1.4c0.4,0,0.9,0.2,1.2,0.6V39.9z"/></g></svg>