<svg xmlns="http://www.w3.org/2000/svg" xmlns:xlink="http://www.w3.org/1999/xlink" height="100%" width="100%" fill="#000000" version="1.1" x="0px" y="0px" viewBox="0 0 66 66" style="enable-background:new 0 0 66 66;" xml:space="preserve"><g><path d="M40.5,5.8C39.3,4.6,37.7,4,36,4H21c-5.8,0-10.5,4.7-10.5,10.5v37C10.5,57.3,15.2,62,21,62h24c5.8,0,10.5-4.7,10.5-10.5   V22.7c0-1.8-0.7-3.5-2-4.7L40.5,5.8z M50.5,51.5c0,3-2.5,5.5-5.5,5.5H21c-3,0-5.5-2.5-5.5-5.5v-37c0-3,2.5-5.5,5.5-5.5h14.1v8   c0,3.6,2.9,6.5,6.5,6.5h8.9V51.5z"/><path d="M20.2,39.9c-0.7,0-1.3,0.6-1.3,1.3c0,0.7,0.6,1.3,1.3,1.3s1.3-0.6,1.3-1.3C21.6,40.5,21,39.9,20.2,39.9z"/><path d="M27.1,35.4c-0.8,0-1.5,0.3-2,1v-0.8h-2.2v9.3h2.2v-3.4c0.6,0.7,1.2,1,2,1c1.7,0,3-1.3,3-3.6C30,36.7,28.8,35.4,27.1,35.4z    M26.4,40.6c-0.5,0-1-0.3-1.3-0.6V38c0.3-0.4,0.8-0.6,1.3-0.6c0.8,0,1.5,0.6,1.5,1.6C27.8,40,27.2,40.6,26.4,40.6z"/><path d="M35.7,35.4c-1.1,0-1.9,0.5-2.4,1v-0.8h-2.2v6.8h2.2V38c0.3-0.3,0.7-0.7,1.3-0.7c0.7,0,1.1,0.3,1.1,1.1v3.9h2.2v-4.8   C37.9,36.3,37.2,35.4,35.7,35.4z"/><path d="M39,38.8c0,2.3,1.3,3.4,3,3.4c0.8,0,1.4-0.3,2-1v0.5c0,1.3-1,1.6-1.7,1.6c-0.8,0-1.5-0.2-2.1-0.8l-0.9,1.5   c0.9,0.7,1.8,1,3,1c1.7,0,3.9-0.6,3.9-3.3v-6.2H44v0.8c-0.5-0.7-1.2-1-2-1C40.3,35.4,39,36.6,39,38.8z M42.7,37.3   c0.4,0,1,0.2,1.3,0.6v1.8c-0.3,0.4-0.8,0.6-1.3,0.6c-0.9,0-1.5-0.5-1.5-1.5C41.2,37.9,41.9,37.3,42.7,37.3z"/></g></svg>