<svg xmlns="http://www.w3.org/2000/svg" xmlns:xlink="http://www.w3.org/1999/xlink" height="100%" width="100%" fill="#000000" version="1.1" x="0px" y="0px" viewBox="0 0 66 66" style="enable-background:new 0 0 66 66;" xml:space="preserve"><g><path d="M40.5,5.8C39.3,4.6,37.7,4,36,4H21c-5.8,0-10.5,4.7-10.5,10.5v37C10.5,57.3,15.2,62,21,62h24c5.8,0,10.5-4.7,10.5-10.5   V22.7c0-1.8-0.7-3.5-2-4.7L40.5,5.8z M50.5,51.5c0,3-2.5,5.5-5.5,5.5H21c-3,0-5.5-2.5-5.5-5.5v-37c0-3,2.5-5.5,5.5-5.5h14.1v8   c0,3.6,2.9,6.5,6.5,6.5h8.9V51.5z"/><path d="M26.9,39.9c-0.7,0-1.3,0.6-1.3,1.3c0,0.7,0.6,1.3,1.3,1.3c0.7,0,1.3-0.6,1.3-1.3C28.2,40.5,27.6,39.9,26.9,39.9z"/><path d="M32.6,35.4c-1,0-2.2,0.3-3.1,1.1l0.8,1.5c0.5-0.5,1.2-0.7,1.9-0.7c0.9,0,1.4,0.4,1.4,1v0.7c-0.4-0.5-1.2-0.8-2.1-0.8   c-1,0-2.3,0.5-2.3,2.2c0,1.5,1.3,2.2,2.3,2.2c0.9,0,1.7-0.3,2.1-0.8v0.7h2.2v-4.2C35.7,36,34.2,35.4,32.6,35.4z M33.6,40.6   c-0.2,0.3-0.7,0.5-1.2,0.5c-0.6,0-1.1-0.3-1.1-0.8s0.5-0.8,1.1-0.8c0.5,0,1,0.2,1.2,0.5V40.6z"/><path d="M38.4,32.5c-0.7,0-1.2,0.5-1.2,1.2c0,0.7,0.5,1.2,1.2,1.2c0.7,0,1.2-0.6,1.2-1.2C39.6,33.1,39.1,32.5,38.4,32.5z"/><rect x="37.3" y="35.6" width="2.2" height="6.8"/></g></svg>