<svg xmlns="http://www.w3.org/2000/svg" xmlns:xlink="http://www.w3.org/1999/xlink" height="100%" width="100%" fill="#000000" version="1.1" x="0px" y="0px" viewBox="0 0 66 66" style="enable-background:new 0 0 66 66;" xml:space="preserve"><g><path d="M40.5,5.8C39.3,4.6,37.7,4,36,4H21c-5.8,0-10.5,4.7-10.5,10.5v37C10.5,57.3,15.2,62,21,62h24c5.8,0,10.5-4.7,10.5-10.5   V22.7c0-1.8-0.7-3.5-2-4.7L40.5,5.8z M50.5,51.5c0,3-2.5,5.5-5.5,5.5H21c-3,0-5.5-2.5-5.5-5.5v-37c0-3,2.5-5.5,5.5-5.5h14.1v8   c0,3.6,2.9,6.5,6.5,6.5h8.9V51.5z"/><path d="M21.3,39.9c-0.7,0-1.3,0.6-1.3,1.3c0,0.7,0.6,1.3,1.3,1.3s1.3-0.6,1.3-1.3C22.6,40.5,22,39.9,21.3,39.9z"/><path d="M27.1,35.4c-2.1,0-3.6,1.6-3.6,3.5c0,2.2,1.6,3.6,3.7,3.6c1,0,2.2-0.3,2.8-0.9l-0.9-1.4c-0.4,0.4-1.2,0.6-1.7,0.6   c-1,0-1.5-0.5-1.7-1.1h4.8v-0.5C30.6,36.9,29.1,35.4,27.1,35.4z M25.7,38.2c0.1-0.5,0.4-1.1,1.4-1.1c1,0,1.3,0.6,1.4,1.1H25.7z"/><path d="M35.8,35.4c-0.8,0-1.5,0.3-2,1v-0.8h-2.2v9.3h2.2v-3.4c0.6,0.7,1.2,1,2,1c1.7,0,3-1.3,3-3.6C38.8,36.7,37.5,35.4,35.8,35.4   z M35.1,40.6c-0.5,0-1-0.3-1.3-0.6V38c0.3-0.4,0.8-0.6,1.3-0.6c0.8,0,1.5,0.6,1.5,1.6C36.6,40,35.9,40.6,35.1,40.6z"/><path d="M39.6,37.7c0,2.7,3.9,1.9,3.9,2.7c0,0.3-0.3,0.5-0.9,0.5c-0.8,0-1.9-0.5-2.4-0.9l-0.9,1.5c0.7,0.6,2,1.1,3.2,1.1   c1.9,0,3.1-0.9,3.1-2.2c0-2.8-3.9-2-3.9-2.7c0-0.3,0.3-0.5,0.8-0.5c0.8,0,1.6,0.4,2,0.7l0.8-1.5c-0.7-0.5-1.7-0.9-2.8-0.9   C40.6,35.4,39.6,36.5,39.6,37.7z"/></g></svg>