<?xml version="1.0" standalone="no"?>
<!DOCTYPE svg PUBLIC "-//W3C//DTD SVG 20010904//EN"
 "http://www.w3.org/TR/2001/REC-SVG-20010904/DTD/svg10.dtd">
<svg version="1.0" xmlns="http://www.w3.org/2000/svg"
 width="512.000000pt" height="512.000000pt" viewBox="0 0 512.000000 512.000000"
 preserveAspectRatio="xMidYMid meet">
<metadata>
Created by potrace 1.14, written by Peter Selinger 2001-2017
</metadata>
<g transform="translate(0.000000,512.000000) scale(0.100000,-0.100000)"
fill="#000000" stroke="none">
<path d="M420 3280 l0 -380 163 -2 162 -3 3 -458 2 -458 978 3 977 3 80 27
c252 85 366 248 352 498 -9 158 -59 254 -171 325 -69 43 -138 68 -329 116 -89
22 -181 51 -203 64 -48 28 -91 76 -100 111 l-6 24 -146 0 -145 0 6 -59 c15
-137 85 -241 204 -303 76 -40 153 -65 323 -102 200 -45 269 -95 278 -202 9
-107 -48 -188 -164 -235 l-59 -24 -812 -3 -813 -3 0 466 0 465 -160 0 -160 0
0 130 0 130 575 0 575 0 0 125 0 125 -705 0 -705 0 0 -380z"/>
<path d="M2434 3640 c-116 -23 -242 -100 -302 -183 l-33 -46 988 -3 988 -3 57
-23 c124 -50 171 -179 108 -301 -19 -38 -75 -83 -120 -97 -14 -4 -65 -10 -115
-13 l-90 -6 0 -125 0 -125 118 -6 c105 -6 125 -10 183 -39 50 -25 69 -41 90
-76 66 -113 27 -246 -90 -306 -82 -42 -134 -50 -348 -55 l-208 -5 0 461 0 461
-150 0 -150 0 0 -586 0 -586 393 5 c390 4 392 4 487 31 120 34 209 84 283 157
130 130 170 327 97 482 -29 61 -117 142 -191 176 l-62 28 34 23 c63 43 111 95
142 155 30 57 32 65 32 175 0 107 -2 119 -29 172 -40 79 -126 162 -211 203
-137 67 -101 65 -1025 64 -459 -1 -853 -5 -876 -9z"/>
<path d="M795 1700 c-3 -5 -1 -10 4 -10 6 0 11 5 11 10 0 6 -2 10 -4 10 -3 0
-8 -4 -11 -10z"/>
<path d="M1006 1658 c-60 -53 -32 -138 45 -138 21 0 39 4 39 9 0 5 -9 7 -20 4
-34 -9 -70 23 -70 61 0 39 26 66 64 66 16 0 25 4 21 10 -11 17 -53 11 -79 -12z"/>
<path d="M1687 1660 c-42 -34 -44 -105 -3 -132 17 -12 86 -9 86 3 0 6 -9 8
-20 4 -34 -11 -70 20 -70 59 0 39 26 66 64 66 16 0 25 4 21 10 -10 17 -51 11
-78 -10z"/>
<path d="M1934 1668 c-23 -11 -44 -48 -44 -77 0 -10 9 -30 21 -45 25 -32 87
-37 111 -8 38 43 29 109 -18 131 -30 13 -42 13 -70 -1z m70 -24 c26 -25 20
-81 -9 -100 -23 -15 -27 -15 -50 0 -45 30 -26 116 25 116 10 0 26 -7 34 -16z"/>
<path d="M515 1661 c29 -6 30 -8 33 -74 4 -88 22 -87 22 2 0 68 1 70 28 74 15
2 -4 4 -43 4 -44 1 -59 -2 -40 -6z"/>
<path d="M750 1595 l0 -75 50 0 c28 0 50 5 50 10 0 6 -18 10 -40 10 -36 0 -40
3 -40 25 0 21 5 25 30 25 17 0 30 5 30 10 0 6 -13 10 -30 10 -25 0 -30 4 -30
24 0 21 5 25 38 29 34 3 33 4 -10 5 l-48 2 0 -75z"/>
<path d="M1220 1596 c0 -44 4 -76 10 -76 6 0 10 22 10 48 0 27 3 52 6 55 4 4
24 -18 46 -48 55 -77 68 -73 68 20 0 62 -3 75 -16 75 -12 0 -15 -10 -14 -47 1
-27 1 -52 1 -57 -1 -5 -18 15 -39 45 -21 29 -45 55 -55 57 -15 3 -17 -6 -17
-72z"/>
<path d="M1500 1595 c0 -43 4 -75 10 -75 6 0 10 32 10 75 0 43 -4 75 -10 75
-6 0 -10 -32 -10 -75z"/>
</g>
</svg>
